<svg width="350" height="66" viewBox="0 0 350 66" fill="none" xmlns="http://www.w3.org/2000/svg">
<g clip-path="url(#clip0_37_45)">
<path d="M336.344 0.800225V39.5752L303.693 2.29623C303.153 1.68606 302.488 1.19917 301.743 0.868584C300.998 0.538002 300.191 0.371449 299.376 0.380211C297.823 0.382064 296.335 0.999624 295.237 2.09744C294.139 3.19525 293.522 4.68369 293.52 6.23623V64.3242H307.182V25.7992L339.844 63.1292C340.382 63.7361 341.045 64.2196 341.787 64.5465C342.529 64.8734 343.333 65.036 344.144 65.0232C345.697 65.0214 347.185 64.4038 348.283 63.306C349.381 62.2082 349.998 60.7198 350 59.1672V0.800225H336.344Z" fill="white"/>
<path d="M13.805 0.78418H0.00497524V59.9572C-0.0478043 60.5228 0.024932 61.093 0.217988 61.6273C0.411044 62.1615 0.719667 62.6465 1.12181 63.0477C1.52396 63.4489 2.0097 63.7564 2.54439 63.9482C3.07908 64.1399 3.64952 64.2113 4.21498 64.1572H45.981V51.5042H13.814L13.805 0.78418Z" fill="white"/>
<path d="M205.762 0.786133H191.921V64.3461H205.762V0.786133Z" fill="white"/>
<path d="M57.52 5.01011V59.9531C57.4671 60.5203 57.5399 61.0923 57.7332 61.6282C57.9266 62.164 58.2356 62.6507 58.6385 63.0536C59.0413 63.4564 59.528 63.7655 60.0639 63.9588C60.5998 64.1521 61.1717 64.225 61.7389 64.1721H103.951V51.7721H71.1439V38.4221H103.956V25.8841H71.1439V13.3781H103.956V0.7841H61.7429C61.175 0.731531 60.6024 0.804776 60.066 0.998608C59.5295 1.19244 59.0424 1.50209 58.6392 1.90556C58.236 2.30903 57.9267 2.79641 57.7333 3.33299C57.5398 3.86957 57.467 4.44219 57.52 5.01011Z" fill="white"/>
<path d="M249.741 13.6741C252.506 13.6741 255.238 14.2745 257.748 15.4339C260.258 16.5933 262.486 18.284 264.279 20.3891L276.401 13.6891C273.392 9.49426 269.436 6.06859 264.854 3.69054C260.271 1.31248 255.193 0.0491431 250.031 0.0032499C244.868 -0.0426433 239.768 1.13019 235.144 3.42641C230.521 5.72262 226.504 9.07741 223.421 13.2181L235.412 20.1421C237.204 18.1085 239.409 16.48 241.88 15.3647C244.35 14.2495 247.03 13.6732 249.741 13.6741Z" fill="white"/>
<path d="M268.051 27.2442C268.825 29.7894 269.061 32.4681 268.741 35.1093C268.422 37.7505 267.556 40.2962 266.198 42.5838C264.84 44.8714 263.02 46.8507 260.854 48.3954C258.688 49.9401 256.223 51.0163 253.618 51.5552V65.4022C258.622 64.8027 263.421 63.0594 267.642 60.3072C271.864 57.5551 275.396 53.8679 277.964 49.5315C280.531 45.1951 282.066 40.3258 282.45 35.3008C282.833 30.2758 282.054 25.2299 280.174 20.5542L268.051 27.2442Z" fill="white"/>
<path d="M230.614 32.8151C230.613 30.8201 230.925 28.8374 231.539 26.9391L219.539 20.0151C217.56 24.6965 216.695 29.7734 217.012 34.8459C217.329 39.9184 218.82 44.848 221.366 49.2465C223.912 53.6451 227.445 57.3924 231.686 60.1935C235.927 62.9945 240.76 64.7728 245.805 65.3882V51.5401C241.512 50.6292 237.662 48.273 234.897 44.865C232.132 41.457 230.62 37.2036 230.614 32.8151Z" fill="white"/>
<path d="M180.594 30.6462C180.103 28.8592 178.546 27.7462 176.294 27.7462H143.731V40.2462H165.485C164.271 43.0901 162.388 45.5989 159.997 47.5592C157.605 49.5196 154.776 50.8736 151.749 51.5062V51.5192C141.149 53.9312 129.849 45.8462 128.861 34.7682C128.559 32.1455 128.832 29.4886 129.661 26.9822C133.619 13.0212 153.311 8.9602 162.408 20.3402L174.531 13.6402C171.869 9.9423 168.472 6.83461 164.552 4.51219V4.49617C150.626 -4.08883 130.764 0.051178 121.56 13.1822C119.998 15.2828 118.691 17.5622 117.669 19.9722C108.807 39.4192 123.094 63.4662 143.923 65.3402C148.478 65.9103 153.102 65.5084 157.491 64.1612V64.1432C171.504 60.0542 181.724 45.8962 180.681 31.1772C180.664 30.9967 180.635 30.8177 180.594 30.6412V30.6462Z" fill="white"/>
</g>
<defs>
<clipPath id="clip0_37_45">
<rect width="350" height="65.596" fill="white"/>
</clipPath>
</defs>
</svg>
